<mxfile host="65bd71144e">
    <diagram id="bmnRJ_pp2FJ-vGZJiEZU" name="Page-1">
        <mxGraphModel dx="3620" dy="9097" grid="1" gridSize="10" guides="1" tooltips="1" connect="1" arrows="1" fold="1" page="1" pageScale="1" pageWidth="850" pageHeight="1100" math="0" shadow="0">
            <root>
                <mxCell id="0"/>
                <mxCell id="1" style="" parent="0"/>
                <mxCell id="6" value="knkff" style="whiteSpace=wrap;html=1;aspect=fixed;fillColor=#b1ddf0;strokeColor=#10739e;strokeWidth=8;movable=1;resizable=1;rotatable=1;deletable=1;editable=1;locked=0;connectable=1;perimeterSpacing=6;rounded=0;" vertex="1" parent="1">
                    <mxGeometry x="6640" y="-3130" width="1130" height="1130" as="geometry"/>
                </mxCell>
                <mxCell id="7" value="" style="rounded=1;whiteSpace=wrap;html=1;fillColor=light-dark(#F68FFF,#392F3F);strokeColor=#9673a6;glass=1;shadow=0;arcSize=0;gradientColor=none;perimeterSpacing=4;strokeWidth=7;fillStyle=solid;" vertex="1" parent="1">
                    <mxGeometry x="6670" y="-3110" width="230" height="710" as="geometry"/>
                </mxCell>
                <mxCell id="8" value="" style="whiteSpace=wrap;html=1;aspect=fixed;movable=1;resizable=1;rotatable=1;deletable=1;editable=1;locked=0;connectable=1;" vertex="1" parent="1">
                    <mxGeometry x="-1700" y="-7700" width="850" height="850" as="geometry"/>
                </mxCell>
                <mxCell id="9" value="main window" style="" parent="0"/>
                <mxCell id="10" value="" style="whiteSpace=wrap;html=1;aspect=fixed;" vertex="1" parent="9">
                    <mxGeometry x="-1700" y="-7700" width="850" height="850" as="geometry"/>
                </mxCell>
                <mxCell id="11" value="" style="rounded=0;whiteSpace=wrap;html=1;rotation=90;" vertex="1" parent="9">
                    <mxGeometry x="-1830" y="-7560" width="450" height="180" as="geometry"/>
                </mxCell>
                <mxCell id="13" value="Text" style="text;strokeColor=none;align=center;fillColor=none;html=1;verticalAlign=middle;whiteSpace=wrap;rounded=0;" vertex="1" parent="9">
                    <mxGeometry x="-1540" y="-7430" width="520" height="150" as="geometry"/>
                </mxCell>
            </root>
        </mxGraphModel>
    </diagram>
</mxfile>